<svg xmlns="http://www.w3.org/2000/svg" xmlns:xlink="http://www.w3.org/1999/xlink" width="18.913" height="18.68" viewBox="0 0 18.913 18.68">
  <defs>
    <clipPath id="clip-path">
      <path id="Clip_2" data-name="Clip 2" d="M0,0H18.913V18.68H0Z" transform="translate(0 0.086)" fill="none"/>
    </clipPath>
  </defs>
  <g id="coin" transform="translate(0 -0.235)">
    <g id="Group_3" data-name="Group 3" transform="translate(0 0.149)">
      <path id="Clip_2-2" data-name="Clip 2" d="M0,0H18.913V18.68H0Z" transform="translate(0 0.086)" fill="none"/>
      <g id="Group_3-2" data-name="Group 3" clip-path="url(#clip-path)">
        <path id="Fill_1" data-name="Fill 1" d="M0,9.34A9.4,9.4,0,0,1,9.457,0a9.4,9.4,0,0,1,9.457,9.34,9.4,9.4,0,0,1-9.457,9.34A9.4,9.4,0,0,1,0,9.34" transform="translate(0 0.086)" fill="#ffd715"/>
      </g>
    </g>
    <path id="Fill_4" data-name="Fill 4" d="M0,7.927A7.977,7.977,0,0,1,8.026,0a7.977,7.977,0,0,1,8.026,7.927,7.977,7.977,0,0,1-8.026,7.927A7.977,7.977,0,0,1,0,7.927" transform="translate(1.431 1.648)" fill="#ffcc01"/>
    <path id="Fill_6" data-name="Fill 6" d="M10.962,0a7.819,7.819,0,0,1,1.263,4.27A7.977,7.977,0,0,1,4.2,12.2,8.062,8.062,0,0,1,0,11.026a8.044,8.044,0,0,0,6.763,3.657,7.977,7.977,0,0,0,8.026-7.927A7.9,7.9,0,0,0,10.962,0" transform="translate(2.694 2.809)" fill="#fcbd11"/>
    <path id="Fill_8" data-name="Fill 8" d="M.527,7.775a7.1,7.1,0,0,1,12.7-4.265A7.1,7.1,0,0,0,0,7a6.911,6.911,0,0,0,1.469,4.265A6.9,6.9,0,0,1,.527,7.775" transform="translate(2.31 2.525)" fill="#ffdb53"/>
  </g>
</svg>
