<svg xmlns="http://www.w3.org/2000/svg" xmlns:xlink="http://www.w3.org/1999/xlink" width="56.365" height="144.928" viewBox="0 0 56.365 144.928">
  <defs>
    <clipPath id="clip-path">
      <path id="Clip_12" data-name="Clip 12" d="M0,0H36.818V27.125H0Z" transform="translate(0.032 0.077)" fill="none"/>
    </clipPath>
  </defs>
  <g id="female_hand" data-name="female hand" transform="translate(0.37 0)">
    <path id="Fill_1" data-name="Fill 1" d="M32.184,3.371C35.007,6.6,44.511,25.2,42.059,28.984c-24.3,37.461-16.955,83.9-16.786,84.5,0,0-1.591,10.673-6.818,12.14a9.831,9.831,0,0,1-12.123-6.813c-.789-2.81-19-69.335,10.193-114.331a9.839,9.839,0,0,1,15.66-1.114" transform="translate(2.609 0)" fill="#fcd9c3"/>
    <path id="Fill_3" data-name="Fill 3" d="M11.352,1.756A9.869,9.869,0,0,1,13.4,3.535c2.823,3.233,12.328,21.833,9.875,25.614-24.3,37.46-16.955,83.9-16.786,84.5A9.853,9.853,0,0,1,0,125.685a9.769,9.769,0,0,0,5.072-.058c5.227-1.467,6.818-12.14,6.818-12.14-.169-.6-7.515-47.044,16.786-84.5C31.13,25.2,21.625,6.6,18.8,3.369A9.844,9.844,0,0,0,8.391.47a9.8,9.8,0,0,1,2.961,1.286" transform="translate(15.991 0.002)" fill="#f2bca7"/>
    <path id="Fill_5" data-name="Fill 5" d="M29.022,1.684a4.934,4.934,0,0,1,.5,5.8L24.528,15.7a4.919,4.919,0,0,1-4.806,2.328L4.314,16.117A4.925,4.925,0,0,1,5.523,6.341L17.777,7.859l3.339-5.494a4.917,4.917,0,0,1,7.906-.681" transform="translate(18.014 118.402)" fill="#f2bca7"/>
    <path id="Fill_7" data-name="Fill 7" d="M23.787,3.785C13.847-.992-.764-2.732.031,7.607c1.3,16.867,7.763,32.456,18.19,33.094,0,0,6.616-5.348,8.244-11.806-9.387-14.309-2.678-25.11-2.678-25.11" transform="translate(6.364 100.381)" fill="#fcd9c3"/>
    <path id="Fill_9" data-name="Fill 9" d="M0,11.451C.081,15.269,3.119,23.17,7.877,25.282-1.51,10.973,5.2.172,5.2.172,2.683-1.037-.135,4.276,0,11.451" transform="translate(24.952 103.993)" fill="#f2bca7"/>
    <g id="Group_13" data-name="Group 13" transform="translate(19.145 117.726)">
      <path id="Clip_12-2" data-name="Clip 12" d="M0,0H36.818V27.125H0Z" transform="translate(0.032 0.077)" fill="none"/>
      <g id="Group_13-2" data-name="Group 13" clip-path="url(#clip-path)">
        <path id="Fill_11" data-name="Fill 11" d="M35.6,1.682a4.919,4.919,0,0,1,1.2,3.677c-.155,1.752-1.832,17.222-12.982,20.821-10.456,3.374-21.1-3.345-21.551-3.633a4.924,4.924,0,0,1,5.3-8.3c2,1.258,8.26,4.165,13.24,2.559,3.937-1.271,5.905-8.986,6.2-12.31a4.918,4.918,0,0,1,8.6-2.81" transform="translate(0.032 0.077)" fill="#fcd9c3"/>
      </g>
    </g>
    <path id="Fill_14" data-name="Fill 14" d="M16.447,1.681a4.914,4.914,0,0,1,1.2,3.677C17.49,7.11,15.813,22.58,4.662,26.178A19.6,19.6,0,0,1,0,27.065a20.7,20.7,0,0,0,7.831-.886c11.15-3.6,12.828-19.069,12.982-20.821A4.905,4.905,0,0,0,14.319.273a4.9,4.9,0,0,1,2.128,1.408" transform="translate(35.163 117.804)" fill="#ea9975"/>
    <path id="Fill_16" data-name="Fill 16" d="M1.058.768C2.83,1.884,7.966,4.294,12.581,3.7A22.291,22.291,0,0,1,4.226.769,4.9,4.9,0,0,0,0,.264a4.947,4.947,0,0,1,1.058.5" transform="translate(22.512 131.278)" fill="#ea9975"/>
    <path id="Fill_18" data-name="Fill 18" d="M2.969,19.793c3.815,1.393,16.769,5.259,23.211,2.76a16.412,16.412,0,0,0,8.1-7.351A36.442,36.442,0,0,0,36.7,5.359,4.907,4.907,0,0,0,27.338,2.9a14.262,14.262,0,0,1-1.866,7.72C24.45,13.428,22.877,16.1,20.7,16.8c-4.979,1.606-11.243-1.3-13.24-2.559A4.912,4.912,0,0,0,0,17.435a5.285,5.285,0,0,0,2.969,2.358" transform="translate(19.276 117.803)" fill="#f2bca7"/>
    <path id="Fill_20" data-name="Fill 20" d="M35.811,1.686A4.906,4.906,0,0,1,37,4.452c1.073,11.12-3,19.728-10.889,23.026-6.4,2.675-18.708.072-22.328-.789A4.926,4.926,0,0,1,6.056,17.1c5.961,1.412,13.919,2.265,16.268,1.283,3.75-1.567,5.531-6.3,4.886-12.986a4.918,4.918,0,0,1,8.6-3.713" transform="translate(18.163 110.088)" fill="#fcd9c3"/>
    <path id="Fill_22" data-name="Fill 22" d="M34.332,5.049a4.924,4.924,0,0,1-6.012,7.593c-1.887-1-7.742-3.418-12.122-2.64-4.277.759-6.737,6.072-6.761,6.126A4.92,4.92,0,1,1,.4,12.233C.58,11.816,4.9,2,14.483.3,22.994-1.209,31.956,3.417,32.95,3.95a4.9,4.9,0,0,1,1.383,1.1" transform="translate(15.467 98.008)" fill="#fcd9c3"/>
    <path id="Fill_24" data-name="Fill 24" d="M24.747,8.071a4.4,4.4,0,0,0-1.176-3.023,4.9,4.9,0,0,0-1.383-1.1C21.194,3.417,12.232-1.209,3.721.3A15.888,15.888,0,0,0,0,1.452C8.37.186,22.289,3.915,24.747,8.071" transform="translate(26.228 98.008)" fill="#f2bca7"/>
    <path id="Fill_26" data-name="Fill 26" d="M2.158,0C.145.474-.535,3.248.438,4.662A2.681,2.681,0,0,0,1.6,5.61l4.26,1.839,1.487.668.16-.352A4.871,4.871,0,0,0,5.1,1.329L2.659.205Z" transform="translate(43.09 100.508)" fill="#4ece90"/>
    <path id="Fill_28" data-name="Fill 28" d="M.285,0,.008,4.2A2.766,2.766,0,0,0,.326,5.709a3.183,3.183,0,0,0,5.039.85C5.7,1.371,2.641.126.285,0" transform="translate(49.942 110.065)" fill="#4ece90"/>
    <path id="Stroke_30" data-name="Stroke 30" d="M26.715,2.794C37.784-3.6-4.35,2.03.371,9.1c.7,1.051,4.112.935,5.331.6" transform="translate(0 94.204)" fill="none" stroke="#ffb600" stroke-miterlimit="10" stroke-width="0.72"/>
    <path id="Stroke_32" data-name="Stroke 32" d="M2.621,11c-13.077.285,27.056-17.321,26.531-8.543-.078,1.3-3.151,3.029-4.4,3.39" transform="translate(1.926 85.542)" fill="none" stroke="#ffb600" stroke-miterlimit="10" stroke-width="0.72"/>
  </g>
</svg>
