<svg xmlns="http://www.w3.org/2000/svg" xmlns:xlink="http://www.w3.org/1999/xlink" width="121.869" height="156.36" viewBox="0 0 121.869 156.36">
  <defs>
    <clipPath id="clip-path">
      <path id="Clip_12" data-name="Clip 12" d="M0,0H28.925V34.815H0Z" transform="translate(0 0.055)" fill="none"/>
    </clipPath>
  </defs>
  <g id="male_hand" data-name="male hand" transform="matrix(0.788, 0.616, -0.616, 0.788, 54.706, -0.135)">
    <path id="Fill_1" data-name="Fill 1" d="M50.81,115.606c-4.014-1.408-28.067-12.833-27.8-17.319,2.613-44.444-19.68-81.054-20.12-81.494A9.87,9.87,0,0,1,2.821,2.912,9.7,9.7,0,0,1,16.6,2.833c2.055,2.045,50.3,50.7,47.158,104.081a9.747,9.747,0,0,1-12.95,8.691" transform="translate(29.016 9.844)" fill="#fbc399"/>
    <path id="Fill_3" data-name="Fill 3" d="M58.019,112.968a9.72,9.72,0,0,1-2.638-.529c-4.015-1.408-28.069-12.833-27.8-17.319C30.19,50.676,7.9,14.066,7.456,13.627A9.865,9.865,0,0,1,7.164,0,9.685,9.685,0,0,0,2.821,2.552a9.87,9.87,0,0,0,.065,13.881c.441.44,22.733,37.049,20.12,81.494-.264,4.486,23.79,15.91,27.8,17.319a9.715,9.715,0,0,0,10.39-2.625,9.662,9.662,0,0,1-3.181.347" transform="translate(29.016 10.204)" fill="#ea9975"/>
    <path id="Fill_5" data-name="Fill 5" d="M3.271,25.07A4.911,4.911,0,0,1,0,20.288l.284-9.577a4.912,4.912,0,0,1,3-4.389L17.5.377a4.866,4.866,0,0,1,6.373,2.649,4.921,4.921,0,0,1-2.632,6.417l-11.3,4.73L9.751,20.58a4.873,4.873,0,0,1-6.48,4.49" transform="translate(8.895 5.302)" fill="#ea9975"/>
    <path id="Fill_7" data-name="Fill 7" d="M13.725,36.643c10.9-.765,25.756-7.274,20.012-15.839C24.366,6.83,11.167-3.486,1.869,1.106c0,0-3.085,7.9-1.327,14.3,15.09,7.766,13.184,21.241,13.184,21.241" transform="translate(19.372 0)" fill="#fbc399"/>
    <path id="Fill_9" data-name="Fill 9" d="M13.551,8.134C11.618,4.864,5.134-.483,0,.035,15.091,7.8,13.184,21.276,13.184,21.276c2.76-.194,4-6.995.367-13.142" transform="translate(19.913 15.367)" fill="#ea9975"/>
    <g id="Group_13" data-name="Group 13" transform="translate(0 0.116)">
      <path id="Clip_12-2" data-name="Clip 12" d="M0,0H28.925V34.815H0Z" transform="translate(0 0.055)" fill="none"/>
      <g id="Group_13-2" data-name="Group 13" clip-path="url(#clip-path)">
        <path id="Fill_11" data-name="Fill 11" d="M5.789,34.541a4.877,4.877,0,0,1-2.831-2.594c-.724-1.594-6.848-15.825,1-24.444C11.318-.578,23.78-.01,24.307.018a4.91,4.91,0,0,1-.5,9.806c-2.336-.1-9.157.467-12.662,4.315-2.771,3.043-.692,10.7.682,13.723a4.923,4.923,0,0,1-2.406,6.506,4.828,4.828,0,0,1-3.632.173" transform="translate(0 0.055)" fill="#fbc399"/>
      </g>
    </g>
    <path id="Fill_14" data-name="Fill 14" d="M8.519,30.107a4.871,4.871,0,0,1-2.831-2.6c-.724-1.594-6.849-15.824,1-24.443A19.49,19.49,0,0,1,10.272,0,20.561,20.561,0,0,0,3.957,4.631c-7.848,8.619-1.724,22.849-1,24.444a4.877,4.877,0,0,0,2.831,2.594,4.832,4.832,0,0,0,5.254-1.392,4.826,4.826,0,0,1-2.523-.17" transform="translate(0 3.043)" fill="#ea9975"/>
    <path id="Fill_16" data-name="Fill 16" d="M11.364.085C9.29-.007,3.685.439,0,3.232A21.984,21.984,0,0,1,8.633,1.648,4.852,4.852,0,0,0,12.522,0a4.88,4.88,0,0,1-1.158.085" transform="translate(15.173 8.348)" fill="#ea9975"/>
    <path id="Fill_18" data-name="Fill 18" d="M24.736.123C20.767.8,7.712,3.839,3.383,9.183A16.446,16.446,0,0,0,0,19.548a36.454,36.454,0,0,0,2.73,9.721,4.877,4.877,0,0,0,2.831,2.594,4.827,4.827,0,0,0,3.632-.173A4.9,4.9,0,0,0,12,26.783a14.27,14.27,0,0,1-2.17-7.609c-.494-2.94-.447-6.031,1.085-7.713,3.5-3.848,10.325-4.42,12.662-4.315A4.9,4.9,0,0,0,28.449.7,5.207,5.207,0,0,0,24.736.123" transform="translate(0.226 2.849)" fill="#ea9975"/>
    <path id="Fill_20" data-name="Fill 20" d="M7.707,37.66a4.857,4.857,0,0,1-2.379-1.809c-6.365-9.1-7.069-18.571-1.882-25.321C7.65,5.056,19.532,1.238,23.073.2A4.907,4.907,0,0,1,25.8,9.623c-5.828,1.718-13.1,4.905-14.647,6.914C8.694,19.746,9.475,24.725,13.3,30.2a4.93,4.93,0,0,1-1.181,6.84,4.841,4.841,0,0,1-4.414.621" transform="translate(2.547 3.337)" fill="#fbc399"/>
    <path id="Fill_22" data-name="Fill 22" d="M3.272,27.332a4.915,4.915,0,0,1,1.465-9.545c2.114-.067,8.344-.858,11.738-3.694C19.79,11.326,19.31,5.509,19.3,5.451A4.877,4.877,0,1,1,29,4.368c.049.449,1.128,11.083-6.3,17.284C16.106,27.16,6.119,27.573,5,27.6a4.829,4.829,0,0,1-1.73-.27" transform="translate(14.845 19.157)" fill="#fbc399"/>
    <path id="Fill_24" data-name="Fill 24" d="M0,6.474A4.363,4.363,0,0,0,2.493,8.512a4.825,4.825,0,0,0,1.73.27c1.117-.029,11.1-.442,17.7-5.951A15.838,15.838,0,0,0,24.565,0C17.972,5.226,4.152,8.863,0,6.474" transform="translate(15.625 37.977)" fill="#ea9975"/>
    <path id="Stroke_26" data-name="Stroke 26" d="M0,0,2.61,1.791" transform="translate(58.329 34.06)" fill="none" stroke="#ea9975" stroke-linecap="round" stroke-miterlimit="10" stroke-width="0.714"/>
    <path id="Stroke_28" data-name="Stroke 28" d="M0,0,.674,3.107" transform="translate(49.214 33.403)" fill="none" stroke="#ea9975" stroke-linecap="round" stroke-miterlimit="10" stroke-width="0.714"/>
    <path id="Stroke_30" data-name="Stroke 30" d="M0,0,1.6,2.743" transform="translate(55.513 39.914)" fill="none" stroke="#ea9975" stroke-linecap="round" stroke-miterlimit="10" stroke-width="0.714"/>
    <path id="Stroke_32" data-name="Stroke 32" d="M0,0,1.6,2.743" transform="translate(68.443 57.351)" fill="none" stroke="#ea9975" stroke-linecap="round" stroke-miterlimit="10" stroke-width="0.714"/>
    <path id="Stroke_34" data-name="Stroke 34" d="M0,0,1.6,2.743" transform="translate(77.103 84.581)" fill="none" stroke="#ea9975" stroke-linecap="round" stroke-miterlimit="10" stroke-width="0.714"/>
    <path id="Stroke_36" data-name="Stroke 36" d="M0,0,2,2.457" transform="translate(73.696 66.929)" fill="none" stroke="#ea9975" stroke-linecap="round" stroke-miterlimit="10" stroke-width="0.714"/>
    <path id="Stroke_38" data-name="Stroke 38" d="M0,0,1.6,2.743" transform="translate(75.561 60.217)" fill="none" stroke="#ea9975" stroke-linecap="round" stroke-miterlimit="10" stroke-width="0.714"/>
    <path id="Stroke_40" data-name="Stroke 40" d="M0,0,.565,3.129" transform="translate(62.317 48.798)" fill="none" stroke="#ea9975" stroke-linecap="round" stroke-miterlimit="10" stroke-width="0.714"/>
    <path id="Stroke_42" data-name="Stroke 42" d="M0,0,.565,3.129" transform="translate(66.231 64.802)" fill="none" stroke="#ea9975" stroke-linecap="round" stroke-miterlimit="10" stroke-width="0.714"/>
    <path id="Stroke_44" data-name="Stroke 44" d="M0,0,.565,3.129" transform="translate(68.959 84.15)" fill="none" stroke="#ea9975" stroke-linecap="round" stroke-miterlimit="10" stroke-width="0.714"/>
    <path id="Stroke_46" data-name="Stroke 46" d="M0,0,1.5,2.8" transform="translate(72.05 74.283)" fill="none" stroke="#ea9975" stroke-linecap="round" stroke-miterlimit="10" stroke-width="0.714"/>
    <path id="Stroke_48" data-name="Stroke 48" d="M.625,0,0,3.117" transform="translate(51.966 45.221)" fill="none" stroke="#ea9975" stroke-linecap="round" stroke-miterlimit="10" stroke-width="0.714"/>
    <path id="Stroke_50" data-name="Stroke 50" d="M.625,0,0,3.117" transform="translate(46.391 42.713)" fill="none" stroke="#ea9975" stroke-linecap="round" stroke-miterlimit="10" stroke-width="0.714"/>
    <path id="Stroke_52" data-name="Stroke 52" d="M.06,0l0,3.18" transform="translate(60.405 58.446)" fill="none" stroke="#ea9975" stroke-linecap="round" stroke-miterlimit="10" stroke-width="0.714"/>
    <path id="Stroke_54" data-name="Stroke 54" d="M1.063,0,0,2.994" transform="translate(59.102 69.646)" fill="none" stroke="#ea9975" stroke-linecap="round" stroke-miterlimit="10" stroke-width="0.714"/>
    <path id="Stroke_56" data-name="Stroke 56" d="M.625,0,0,3.117" transform="translate(55.999 51.312)" fill="none" stroke="#ea9975" stroke-linecap="round" stroke-miterlimit="10" stroke-width="0.714"/>
    <path id="Stroke_58" data-name="Stroke 58" d="M.625,0,0,3.117" transform="translate(64.659 76.154)" fill="none" stroke="#ea9975" stroke-linecap="round" stroke-miterlimit="10" stroke-width="0.714"/>
    <path id="Stroke_60" data-name="Stroke 60" d="M.625,0,0,3.117" transform="translate(54.813 61.822)" fill="none" stroke="#ea9975" stroke-linecap="round" stroke-miterlimit="10" stroke-width="0.714"/>
    <path id="Stroke_62" data-name="Stroke 62" d="M.625,0,0,3.117" transform="translate(59.321 80.453)" fill="none" stroke="#ea9975" stroke-linecap="round" stroke-miterlimit="10" stroke-width="0.714"/>
    <path id="Stroke_64" data-name="Stroke 64" d="M1.786,0,0,2.623" transform="translate(49.132 54.187)" fill="none" stroke="#ea9975" stroke-linecap="round" stroke-miterlimit="10" stroke-width="0.714"/>
    <path id="Stroke_66" data-name="Stroke 66" d="M0,0,2.44,2.019" transform="translate(62.565 41.59)" fill="none" stroke="#ea9975" stroke-linecap="round" stroke-miterlimit="10" stroke-width="0.714"/>
    <path id="Stroke_68" data-name="Stroke 68" d="M0,0,2.44,2.019" transform="translate(69.208 50.906)" fill="none" stroke="#ea9975" stroke-linecap="round" stroke-miterlimit="10" stroke-width="0.714"/>
    <path id="Stroke_70" data-name="Stroke 70" d="M0,0,2.44,2.019" transform="translate(79.172 75.628)" fill="none" stroke="#ea9975" stroke-linecap="round" stroke-miterlimit="10" stroke-width="0.714"/>
    <path id="Stroke_72" data-name="Stroke 72" d="M0,.526,4.571.018A2.641,2.641,0,0,1,6.033.267a2.684,2.684,0,0,1,.926,4.068l-.2.251" transform="translate(16.455 41.298)" fill="none" stroke="#ea9975" stroke-linecap="round" stroke-miterlimit="10" stroke-width="0.714"/>
    <path id="Stroke_74" data-name="Stroke 74" d="M6.619,4.516,5.159,1.576A2.73,2.73,0,0,0,.11,1.827L0,2.138" transform="translate(7.345 35.038)" fill="none" stroke="#ea9975" stroke-linecap="round" stroke-miterlimit="10" stroke-width="0.714"/>
  </g>
</svg>
