<svg xmlns="http://www.w3.org/2000/svg" width="34.731" height="27.155" viewBox="0 0 34.731 27.155">
  <g id="Store_icon" data-name="Store icon" transform="translate(0.001 -0.402)">
    <path id="Path" d="M25.62,0V5.643a2,2,0,0,1-2,2H5.941a2,2,0,0,1-2-2V0A7.082,7.082,0,0,1,.985.6,3.3,3.3,0,0,1,0,.5V7.665a4,4,0,0,0,4,4H25.56a4,4,0,0,0,4-4l0-7.164a3.244,3.244,0,0,1-.985.1A7.081,7.081,0,0,1,25.62,0Z" transform="translate(2.72 15.891)" fill="#8692aa"/>
    <path id="Combined_Shape" data-name="Combined Shape" d="M27.851,8.548a3.464,3.464,0,0,1-3.45,3.521,3.529,3.529,0,0,1-3.45-3.521A3.464,3.464,0,0,1,17.5,12.069q-.07,0-.139,0t-.14,0a3.464,3.464,0,0,1-3.449-3.521,3.529,3.529,0,0,1-3.45,3.521,3.464,3.464,0,0,1-3.45-3.521,3.529,3.529,0,0,1-3.449,3.521A3.452,3.452,0,0,1,0,8.891V8.864a1.01,1.01,0,0,1,.154-.581L4.225,1.859A4,4,0,0,1,7.6,0H27.122A4,4,0,0,1,30.5,1.859l4.073,6.425a1.01,1.01,0,0,1,.154.581v.027A3.452,3.452,0,0,1,31.3,12.069,3.529,3.529,0,0,1,27.851,8.548Z" transform="translate(0.001 0.402)" fill="#8692aa"/>
  </g>
</svg>
