<svg xmlns="http://www.w3.org/2000/svg" width="352.256" height="88.621" viewBox="0 0 352.256 88.621">
  <g id="Male_hand" data-name="Male hand" transform="translate(-0.241 88.621) rotate(-90)">
    <path id="Fill_1" data-name="Fill 1" d="M9.821,63.007l.357.537A12.295,12.295,0,0,0,29.5,48.332l-10.7-13.588,8.264-17.1a12.295,12.295,0,0,0-22.14-10.7h0a58.771,58.771,0,0,0,4.9,56.06" transform="translate(0 21.727)" fill="#ea9975"/>
    <path id="Fill_4" data-name="Fill 4" d="M40.061,94.542A41.275,41.275,0,0,0,82.539,54.5l.613-12.013A41.279,41.279,0,0,0,.629,40.057L.018,52.068A41.273,41.273,0,0,0,40.061,94.542" transform="translate(5.452 13.085)" fill="#fbc399"/>
    <path id="Fill_6" data-name="Fill 6" d="M12.793,24.589,0,256.709C0,270.288,23.8,281.3,37.384,281.3s31.108-11.01,31.108-24.589L61.974,24.589a24.591,24.591,0,0,0-49.181,0" transform="translate(14.382 71.199)" fill="#fbc399"/>
    <path id="Fill_8" data-name="Fill 8" d="M9.741,26.947,9.13,38.958A41.211,41.211,0,0,0,25.976,73.449a11.136,11.136,0,0,1,4.488,9.614L18.042,301.713c0,13.579,30.32,24.587,43.9,24.587a24.453,24.453,0,0,0,10.4-2.329c-4.5,5.865-18.067,9.663-26.028,9.663-13.581,0-37.384-11.01-37.384-24.589L21.489,88A6.911,6.911,0,0,0,18.4,81.858,41.23,41.23,0,0,1,.018,46.291L.629,34.279A41.227,41.227,0,0,1,20.839,0a41.1,41.1,0,0,0-11.1,26.947" transform="translate(5.451 18.862)" fill="#ea9975"/>
    <path id="Fill_10" data-name="Fill 10" d="M0,42.682a9.713,9.713,0,0,0,19.426.024l.088-32.97V9.711A9.713,9.713,0,0,0,.088,9.685L0,42.655Z" transform="translate(17.984 3.939)" fill="#fbc399"/>
    <path id="Fill_12" data-name="Fill 12" d="M4.213,9.685S0,48.034,0,42.682v-.028L.088,9.685A9.71,9.71,0,0,1,11.867.223,9.714,9.714,0,0,0,4.213,9.685" transform="translate(17.984 3.939)" fill="#ea9975"/>
    <path id="Fill_14" data-name="Fill 14" d="M0,44.51a9.713,9.713,0,0,0,19.427.024l.088-34.8V9.713A9.713,9.713,0,0,0,.089,9.687L0,44.484Z" transform="translate(34.634 0.241)" fill="#fbc399"/>
    <path id="Fill_17" data-name="Fill 17" d="M3.8,9.687S0,49.861,0,44.51v-.026l.089-34.8A9.69,9.69,0,0,1,11.654.183,9.712,9.712,0,0,0,3.8,9.687" transform="translate(34.634 0.241)" fill="#ea9975"/>
    <path id="Fill_20" data-name="Fill 20" d="M0,9.711v.025L.09,44.268a9.713,9.713,0,0,0,19.426-.024v-.028l-.09-34.53A9.713,9.713,0,0,0,0,9.711" transform="translate(52.268 1.441)" fill="#fbc399"/>
    <path id="Fill_22" data-name="Fill 22" d="M3.54,9.711v.025S.1,49.632.09,44.268L0,9.736V9.711A9.69,9.69,0,0,1,11.488.168,9.71,9.71,0,0,0,3.54,9.711" transform="translate(52.268 1.441)" fill="#ea9975"/>
    <path id="Fill_24" data-name="Fill 24" d="M0,9.713v.025l.09,34.53a9.713,9.713,0,0,0,19.426-.024v-.026l-.09-34.532A9.713,9.713,0,0,0,0,9.713" transform="translate(69.106 6.491)" fill="#fbc399"/>
    <path id="Fill_26" data-name="Fill 26" d="M3.54,9.713v.025S.1,49.632.09,44.268L0,9.738V9.713A9.714,9.714,0,0,1,9.687,0a9.6,9.6,0,0,1,1.8.17A9.709,9.709,0,0,0,3.54,9.713" transform="translate(69.106 6.491)" fill="#ea9975"/>
    <path id="Stroke_28" data-name="Stroke 28" d="M0,0,3.515,5.38" transform="translate(60.406 108.654)" fill="none" stroke="#ea9975" stroke-linecap="round" stroke-miterlimit="10" stroke-width="1.449"/>
    <path id="Stroke_30" data-name="Stroke 30" d="M1.142,0,0,6.324" transform="translate(42.645 100.311)" fill="none" stroke="#ea9975" stroke-linecap="round" stroke-miterlimit="10" stroke-width="1.449"/>
    <path id="Stroke_32" data-name="Stroke 32" d="M0,0,.875,6.367" transform="translate(50.576 117.381)" fill="none" stroke="#ea9975" stroke-linecap="round" stroke-miterlimit="10" stroke-width="1.449"/>
    <path id="Stroke_34" data-name="Stroke 34" d="M0,0,.875,6.367" transform="translate(68.413 99.079)" fill="none" stroke="#ea9975" stroke-linecap="round" stroke-miterlimit="10" stroke-width="1.449"/>
    <path id="Stroke_36" data-name="Stroke 36" d="M0,0,.875,6.367" transform="translate(61.351 160.015)" fill="none" stroke="#ea9975" stroke-linecap="round" stroke-miterlimit="10" stroke-width="1.449"/>
    <path id="Stroke_38" data-name="Stroke 38" d="M0,0,.875,6.367" transform="translate(56.508 217.591)" fill="none" stroke="#ea9975" stroke-linecap="round" stroke-miterlimit="10" stroke-width="1.449"/>
    <path id="Stroke_40" data-name="Stroke 40" d="M0,0,1.862,6.151" transform="translate(63.795 181.989)" fill="none" stroke="#ea9975" stroke-linecap="round" stroke-miterlimit="10" stroke-width="1.449"/>
    <path id="Stroke_42" data-name="Stroke 42" d="M0,0,.875,6.367" transform="translate(72.503 170.92)" fill="none" stroke="#ea9975" stroke-linecap="round" stroke-miterlimit="10" stroke-width="1.449"/>
    <path id="Stroke_44" data-name="Stroke 44" d="M1.365,0,0,6.28" transform="translate(55.107 139.271)" fill="none" stroke="#ea9975" stroke-linecap="round" stroke-miterlimit="10" stroke-width="1.449"/>
    <path id="Stroke_46" data-name="Stroke 46" d="M1.365,0,0,6.28" transform="translate(50.053 172.192)" fill="none" stroke="#ea9975" stroke-linecap="round" stroke-miterlimit="10" stroke-width="1.449"/>
    <path id="Stroke_48" data-name="Stroke 48" d="M1.365,0,0,6.28" transform="translate(40.176 210.429)" fill="none" stroke="#ea9975" stroke-linecap="round" stroke-miterlimit="10" stroke-width="1.449"/>
    <path id="Stroke_50" data-name="Stroke 50" d="M0,0,.65,6.394" transform="translate(55 194.428)" fill="none" stroke="#ea9975" stroke-linecap="round" stroke-miterlimit="10" stroke-width="1.449"/>
    <path id="Stroke_52" data-name="Stroke 52" d="M3.592,0,0,5.329" transform="translate(37.378 125.004)" fill="none" stroke="#ea9975" stroke-linecap="round" stroke-miterlimit="10" stroke-width="1.449"/>
    <path id="Stroke_54" data-name="Stroke 54" d="M3.592,0,0,5.329" transform="translate(28.847 115.971)" fill="none" stroke="#ea9975" stroke-linecap="round" stroke-miterlimit="10" stroke-width="1.449"/>
    <path id="Stroke_56" data-name="Stroke 56" d="M2.47,0,0,5.933" transform="translate(40.388 155.831)" fill="none" stroke="#ea9975" stroke-linecap="round" stroke-miterlimit="10" stroke-width="1.449"/>
    <path id="Stroke_58" data-name="Stroke 58" d="M2.978,0,0,5.7" transform="translate(35.51 176.029)" fill="none" stroke="#ea9975" stroke-linecap="round" stroke-miterlimit="10" stroke-width="1.449"/>
    <path id="Stroke_60" data-name="Stroke 60" d="M3.592,0,0,5.329" transform="translate(40.234 139.519)" fill="none" stroke="#ea9975" stroke-linecap="round" stroke-miterlimit="10" stroke-width="1.449"/>
    <path id="Stroke_62" data-name="Stroke 62" d="M3.592,0,0,5.329" transform="translate(37.243 192.638)" fill="none" stroke="#ea9975" stroke-linecap="round" stroke-miterlimit="10" stroke-width="1.449"/>
    <path id="Stroke_64" data-name="Stroke 64" d="M3.592,0,0,5.329" transform="translate(23.878 196.494)" fill="none" stroke="#ea9975" stroke-linecap="round" stroke-miterlimit="10" stroke-width="1.449"/>
    <path id="Stroke_66" data-name="Stroke 66" d="M5.39,0,0,3.5" transform="translate(25.484 140.429)" fill="none" stroke="#ea9975" stroke-linecap="round" stroke-miterlimit="10" stroke-width="1.449"/>
    <path id="Stroke_68" data-name="Stroke 68" d="M0,0,3.02,5.673" transform="translate(66.148 127.461)" fill="none" stroke="#ea9975" stroke-linecap="round" stroke-miterlimit="10" stroke-width="1.449"/>
    <path id="Stroke_70" data-name="Stroke 70" d="M0,0,3.02,5.673" transform="translate(67.787 148.584)" fill="none" stroke="#ea9975" stroke-linecap="round" stroke-miterlimit="10" stroke-width="1.449"/>
    <path id="Stroke_72" data-name="Stroke 72" d="M0,0,3.02,5.673" transform="translate(67.34 202.498)" fill="none" stroke="#ea9975" stroke-linecap="round" stroke-miterlimit="10" stroke-width="1.449"/>
  </g>
</svg>
